# xmcd CD database file generated by LOLA_Freedb v0.9beta0
# 
# Track frame offsets:
#      150
#      22772
#      37916
#      55617
#      70261
#      90731
#      108784
#      128854
#      141664
#      167716
# 
# Disc length: 2433 seconds
# 
# Revision: 0 
# Processed by: cddbd v1.5.1PL2 Copyright (c) Steve Scherf et al.
# Submitted via: LOLA_Freedb v0.9beta0
# 
DISCID=7d097f0a
DTITLE=Joan Baez - The contemporary ballad book
DYEAR=1974
DGENRE=
TTITLE0=North country blues
TTITLE1=It ain't me Babe
TTITLE2=Children of darkness
TTITLE3=C'era un ragazzo che come me amava i beatles e i rolling stones
TTITLE4=Wayfaring stranger
TTITLE5=Birmingham Sunday
TTITLE6=San Francisco Mabel Joy
TTITLE7=Be not too hard
TTITLE8=Restless farewell
TTITLE9=Rangers' command
EXTD=
EXTT0=
EXTT1=
EXTT2=
EXTT3=
EXTT4=
EXTT5=
EXTT6=
EXTT7=
EXTT8=
EXTT9=
PLAYORDER=
